<?xml version="1.0" standalone="no"?>
<!DOCTYPE svg PUBLIC "-//W3C//DTD SVG 20010904//EN"
 "http://www.w3.org/TR/2001/REC-SVG-20010904/DTD/svg10.dtd">
<svg version="1.0" xmlns="http://www.w3.org/2000/svg"
 width="30.000000px" height="30.000000px" viewBox="0 0 500.000000 500.000000"
 preserveAspectRatio="xMidYMid meet">
<metadata>
Created by potrace 1.11, written by Peter Selinger 2001-2013
</metadata>
<g transform="translate(0.000000,500.000000) scale(0.100000,-0.100000)"
fill="#0db7ed" stroke="none">
<path d="M2210 3985 l0 -235 255 0 255 0 0 235 0 235 -255 0 -255 0 0 -235z"/>
<path d="M1010 3425 l0 -235 255 0 255 0 0 235 0 235 -255 0 -255 0 0 -235z"/>
<path d="M1610 3425 l0 -235 255 0 255 0 0 235 0 235 -255 0 -255 0 0 -235z"/>
<path d="M2210 3425 l0 -235 255 0 255 0 0 235 0 235 -255 0 -255 0 0 -235z"/>
<path d="M3832 3491 c-105 -124 -161 -291 -167 -491 -2 -97 26 -224 69 -305
14 -26 26 -49 26 -51 0 -7 -89 -42 -135 -53 -53 -12 -63 -14 -135 -26 -24 -4
-808 -8 -1742 -8 l-1698 0 -1 -21 c0 -11 -3 -34 -6 -51 -9 -44 -8 -259 1 -340
8 -71 40 -236 57 -290 112 -368 293 -625 571 -810 166 -111 393 -198 602 -231
21 -3 48 -8 60 -10 117 -24 577 -24 726 0 14 3 48 7 75 10 191 22 465 92 664
169 159 61 418 199 526 279 387 288 655 624 835 1046 17 39 28 52 44 53 241 5
395 49 513 145 57 47 143 141 143 157 0 4 10 24 23 45 13 20 35 58 50 84 l27
46 -62 46 c-104 78 -231 107 -443 102 -77 -2 -148 -7 -158 -11 -10 -4 -17 -4
-16 1 9 33 -50 195 -95 258 -40 59 -101 131 -135 161 -19 16 -39 35 -45 40
-20 18 -111 92 -122 98 -6 4 -30 -15 -52 -42z"/>
<path d="M410 2875 l0 -235 255 0 255 0 0 235 0 235 -255 0 -255 0 0 -235z"/>
<path d="M1010 2875 l0 -235 255 0 255 0 0 235 0 235 -255 0 -255 0 0 -235z"/>
<path d="M1610 2875 l0 -235 255 0 255 0 0 235 0 235 -255 0 -255 0 0 -235z"/>
<path d="M2210 2875 l0 -235 255 0 255 0 0 235 0 235 -255 0 -255 0 0 -235z"/>
<path d="M2810 2875 l0 -235 255 0 255 0 0 235 0 235 -255 0 -255 0 0 -235z"/>
</g>
</svg>
