<?xml version="1.0" encoding="UTF-8" standalone="no"?>
<svg
   xmlns:dc="http://purl.org/dc/elements/1.1/"
   xmlns:cc="http://creativecommons.org/ns#"
   xmlns:rdf="http://www.w3.org/1999/02/22-rdf-syntax-ns#"
   xmlns:svg="http://www.w3.org/2000/svg"
   xmlns="http://www.w3.org/2000/svg"
   viewBox="0 0 247.5 247.49875"
   height="247.49875"
   width="247.5"
   xml:space="preserve"
   version="1.1"
   id="svg4155"><metadata
     id="metadata4161"><rdf:RDF><cc:Work
         rdf:about=""><dc:format>image/svg+xml</dc:format><dc:type
           rdf:resource="http://purl.org/dc/dcmitype/StillImage" /><dc:title></dc:title></cc:Work></rdf:RDF></metadata><defs
     id="defs4159"><clipPath
       id="clipPath4171"
       clipPathUnits="userSpaceOnUse"><path
         id="path4173"
         d="m 0,413.928 413.928,0 L 413.928,0 0,0 0,413.928 Z" /></clipPath></defs><g
     transform="matrix(1.25,0,0,-1.25,-134.939,382.45425)"
     id="g4163"><path
       id="path4165"
       style="fill:#151515;fill-opacity:1;fill-rule:nonzero;stroke:none"
       d="m 305.95119,107.9644 -197.99999,0 0,198 197.99999,0 0,-198 z" /><g
       id="g4167"><g
         clip-path="url(#clipPath4171)"
         id="g4169"><g
           transform="translate(269.9492,154.3984)"
           id="g4175"><path
             id="path4177"
             style="fill:#ffffff;fill-opacity:1;fill-rule:nonzero;stroke:none"
             d="m 0,0 c 0,-5.768 -4.675,-10.441 -10.441,-10.441 l -105.102,0 c -5.767,0 -10.441,4.673 -10.441,10.441 l 0,105.109 c 0,5.766 4.674,10.441 10.441,10.441 l 105.102,0 C -4.675,115.55 0,110.875 0,105.109 L 0,0 Z m 2.911,151.565 -131.818,0 c -18.276,0 -33.091,-14.815 -33.091,-33.09 l 0,-131.819 c 0,-18.275 14.815,-33.09 33.091,-33.09 l 131.818,0 c 18.276,0 33.091,14.815 33.091,33.09 l 0,131.819 c 0,18.275 -14.815,33.09 -33.091,33.09" /></g><g
           transform="translate(185.9424,179.9648)"
           id="g4179"><path
             id="path4181"
             style="fill:#ffffff;fill-opacity:1;fill-rule:nonzero;stroke:none"
             d="m 0,0 c -3.315,0 -5.991,2.695 -5.991,6.02 l 0,41.959 C -5.991,51.303 -3.315,54 0,54 l 42.018,0 c 3.316,0 5.991,-2.697 5.991,-6.021 l 0,-41.959 C 48.009,2.695 45.334,0 42.018,0 L 0,0 Z" /></g></g></g></g></svg>